<svg width="304" height="272" viewBox="0 0 304 272" fill="none" xmlns="http://www.w3.org/2000/svg">
<path d="M2 3H97.5C97.5 3 100.5 40.9122 133 40.9122C165.5 40.9122 170.5 3 170.5 3H269V261H2V3Z" fill="#E457E7"/>
<line x1="2.2" y1="3" x2="2.2" y2="261" stroke="#ABABAB" stroke-width="0.4"/>
<line y1="-0.2" x2="259.003" y2="-0.2" transform="matrix(-0.00440447 0.99999 -0.999989 -0.00469086 36.1455 2)" stroke="#ABABAB" stroke-width="0.4"/>
<line y1="-0.2" x2="259.003" y2="-0.2" transform="matrix(-0.00440447 0.99999 -0.999989 -0.00469086 70.1455 2)" stroke="#ABABAB" stroke-width="0.4"/>
<line y1="-0.2" x2="259.003" y2="-0.2" transform="matrix(-0.00440447 0.99999 -0.999989 -0.00469086 104.146 2)" stroke="#ABABAB" stroke-width="0.4"/>
<line y1="-0.2" x2="259.003" y2="-0.2" transform="matrix(-0.00440447 0.99999 -0.999989 -0.00469086 138.146 2)" stroke="#ABABAB" stroke-width="0.4"/>
<line x1="172.346" y1="2.00088" x2="171.2" y2="261.001" stroke="#ABABAB" stroke-width="0.4"/>
<line y1="-0.2" x2="259.003" y2="-0.2" transform="matrix(-0.00440447 0.99999 -0.999989 -0.00469086 201.146 2)" stroke="#ABABAB" stroke-width="0.4"/>
<line y1="-0.2" x2="259.003" y2="-0.2" transform="matrix(-0.00440447 0.99999 -0.999989 -0.00469086 235.146 2)" stroke="#ABABAB" stroke-width="0.4"/>
<line x1="269.2" y1="3" x2="269.2" y2="261" stroke="#ABABAB" stroke-width="0.4"/>
<line x1="2" y1="260.8" x2="269" y2="260.8" stroke="#ABABAB" stroke-width="0.4"/>
<line y1="-0.2" x2="266.847" y2="-0.2" transform="matrix(1 -0.000931543 0.000132456 1 2.15283 229.228)" stroke="#ABABAB" stroke-width="0.4"/>
<line y1="-0.2" x2="267.015" y2="-0.2" transform="matrix(1 -0.000931543 0.000132456 1 1.98535 196.216)" stroke="#ABABAB" stroke-width="0.4"/>
<line x1="1.99997" y1="162.8" x2="269" y2="162.757" stroke="#ABABAB" stroke-width="0.4"/>
<line y1="-0.2" x2="266.352" y2="-0.2" transform="matrix(1 -0.000931543 0.000132456 1 2.64844 130.192)" stroke="#ABABAB" stroke-width="0.4"/>
<line y1="-0.2" x2="266.519" y2="-0.2" transform="matrix(1 -0.000931543 0.000132456 1 2.48096 97.1802)" stroke="#ABABAB" stroke-width="0.4"/>
<line x1="2.33641" y1="68.8239" x2="269" y2="68.7999" stroke="#ABABAB" stroke-width="0.4"/>
<line y1="-0.2" x2="266.831" y2="-0.2" transform="matrix(1 -0.000931543 0.000132456 1 2.16943 36.0117)" stroke="#ABABAB" stroke-width="0.4"/>
<line x1="2" y1="2.8" x2="269" y2="2.8" stroke="#ABABAB" stroke-width="0.4"/>
<g filter="url(#filter0_d)">
<path d="M172.5 2.99986C172.5 2.99986 159.5 97.5 138.503 95.997C117.505 94.494 91.5 102.5 91.5 130C91.5 157.5 114.5 163.5 137 163.5C159.5 163.5 171.503 260.997 171.503 260.997" stroke="white" stroke-width="5"/>
</g>
<path d="M19.7969 194.828L20.0938 197.375L20.5469 195.125L24.1875 179.25H26.5781L30.1094 195.125L30.5625 197.438L30.8906 194.812L33.6719 179.25H36.5312L32 202H29.4219L25.625 185.422L25.3906 184.078L25.1562 185.422L21.2188 202H18.625L14.1094 179.25H16.9688L19.7969 194.828ZM49.75 196.062H42.0625L40.2969 202H37.3594L44.6875 179.25H47.1406L54.4844 202H51.5469L49.75 196.062ZM42.8125 193.594H49.0156L45.9062 183.25L42.8125 193.594ZM67.5156 196.25C67.5156 195.115 67.2083 194.245 66.5938 193.641C65.9792 193.036 64.8698 192.448 63.2656 191.875C61.6615 191.302 60.4323 190.703 59.5781 190.078C58.7344 189.443 58.099 188.724 57.6719 187.922C57.2552 187.109 57.0469 186.182 57.0469 185.141C57.0469 183.339 57.6458 181.854 58.8438 180.688C60.0521 179.521 61.6302 178.938 63.5781 178.938C64.9115 178.938 66.099 179.24 67.1406 179.844C68.1823 180.438 68.9844 181.266 69.5469 182.328C70.1094 183.391 70.3906 184.557 70.3906 185.828H67.5156C67.5156 184.422 67.1771 183.333 66.5 182.562C65.8229 181.792 64.849 181.406 63.5781 181.406C62.4219 181.406 61.526 181.729 60.8906 182.375C60.2552 183.021 59.9375 183.927 59.9375 185.094C59.9375 186.052 60.2812 186.854 60.9688 187.5C61.6562 188.146 62.7188 188.724 64.1562 189.234C66.3958 189.974 67.9948 190.885 68.9531 191.969C69.9219 193.052 70.4062 194.469 70.4062 196.219C70.4062 198.062 69.8073 199.542 68.6094 200.656C67.4115 201.76 65.7812 202.312 63.7188 202.312C62.3958 202.312 61.1719 202.026 60.0469 201.453C58.9323 200.87 58.0521 200.057 57.4062 199.016C56.7708 197.964 56.4531 196.76 56.4531 195.406H59.3281C59.3281 196.812 59.7188 197.906 60.5 198.688C61.2917 199.469 62.3646 199.859 63.7188 199.859C64.9792 199.859 65.9271 199.536 66.5625 198.891C67.1979 198.245 67.5156 197.365 67.5156 196.25ZM77.8594 179.25L83.7969 197.812L89.7344 179.25H93.4219V202H90.5625V193.141L90.8281 184.266L84.875 202H82.6875L76.7656 184.328L77.0312 193.141V202H74.1719V179.25H77.8594ZM25.3906 234.25C25.3906 233.115 25.0833 232.245 24.4688 231.641C23.8542 231.036 22.7448 230.448 21.1406 229.875C19.5365 229.302 18.3073 228.703 17.4531 228.078C16.6094 227.443 15.974 226.724 15.5469 225.922C15.1302 225.109 14.9219 224.182 14.9219 223.141C14.9219 221.339 15.5208 219.854 16.7188 218.688C17.9271 217.521 19.5052 216.938 21.4531 216.938C22.7865 216.938 23.974 217.24 25.0156 217.844C26.0573 218.438 26.8594 219.266 27.4219 220.328C27.9844 221.391 28.2656 222.557 28.2656 223.828H25.3906C25.3906 222.422 25.0521 221.333 24.375 220.562C23.6979 219.792 22.724 219.406 21.4531 219.406C20.2969 219.406 19.401 219.729 18.7656 220.375C18.1302 221.021 17.8125 221.927 17.8125 223.094C17.8125 224.052 18.1562 224.854 18.8438 225.5C19.5312 226.146 20.5938 226.724 22.0312 227.234C24.2708 227.974 25.8698 228.885 26.8281 229.969C27.7969 231.052 28.2812 232.469 28.2812 234.219C28.2812 236.062 27.6823 237.542 26.4844 238.656C25.2865 239.76 23.6562 240.312 21.5938 240.312C20.2708 240.312 19.0469 240.026 17.9219 239.453C16.8073 238.87 15.9271 238.057 15.2812 237.016C14.6458 235.964 14.3281 234.76 14.3281 233.406H17.2031C17.2031 234.812 17.5938 235.906 18.375 236.688C19.1667 237.469 20.2396 237.859 21.5938 237.859C22.8542 237.859 23.8021 237.536 24.4375 236.891C25.0729 236.245 25.3906 235.365 25.3906 234.25ZM42.9531 229.484H34.9062V237.547H44.2812V240H32.0469V217.25H44.125V219.719H34.9062V227.031H42.9531V229.484ZM62.2188 232.781C62.0938 235.219 61.4062 237.083 60.1562 238.375C58.9167 239.667 57.1615 240.312 54.8906 240.312C52.6094 240.312 50.7969 239.448 49.4531 237.719C48.1094 235.979 47.4375 233.625 47.4375 230.656V226.531C47.4375 223.573 48.125 221.234 49.5 219.516C50.8854 217.797 52.7708 216.938 55.1562 216.938C57.3542 216.938 59.0521 217.599 60.25 218.922C61.4583 220.234 62.1146 222.115 62.2188 224.562H59.3281C59.2031 222.708 58.8125 221.385 58.1562 220.594C57.5 219.802 56.5 219.406 55.1562 219.406C53.6042 219.406 52.4115 220.016 51.5781 221.234C50.7448 222.443 50.3281 224.219 50.3281 226.562V230.734C50.3281 233.036 50.7135 234.802 51.4844 236.031C52.2656 237.26 53.401 237.875 54.8906 237.875C56.3802 237.875 57.4531 237.505 58.1094 236.766C58.7656 236.026 59.1719 234.698 59.3281 232.781H62.2188ZM68.9688 231.094V240H66.1094V217.25H73.3594C75.474 217.25 77.1354 217.885 78.3438 219.156C79.5521 220.417 80.1562 222.099 80.1562 224.203C80.1562 226.391 79.5781 228.078 78.4219 229.266C77.276 230.443 75.6562 231.052 73.5625 231.094H68.9688ZM68.9688 228.641H73.3594C74.6302 228.641 75.6042 228.26 76.2812 227.5C76.9583 226.74 77.2969 225.651 77.2969 224.234C77.2969 222.87 76.9479 221.776 76.25 220.953C75.5521 220.13 74.5938 219.719 73.375 219.719H68.9688V228.641ZM95.9531 240H83.2344V237.922L89.7188 229.328C90.6979 228.005 91.375 226.922 91.75 226.078C92.1354 225.224 92.3281 224.323 92.3281 223.375C92.3281 222.167 92.0469 221.188 91.4844 220.438C90.9219 219.688 90.1823 219.312 89.2656 219.312C88.1094 219.312 87.2135 219.714 86.5781 220.516C85.9531 221.307 85.6406 222.453 85.6406 223.953H82.875C82.875 221.859 83.4479 220.167 84.5938 218.875C85.7396 217.583 87.2969 216.938 89.2656 216.938C91.0781 216.938 92.5052 217.495 93.5469 218.609C94.5885 219.714 95.1094 221.188 95.1094 223.031C95.1094 225.281 93.9375 227.943 91.5938 231.016L86.5312 237.641H95.9531V240ZM100.172 228.594L101.156 217.25H111.047V219.922H103.484L102.953 226.125C103.891 225.469 104.901 225.141 105.984 225.141C107.755 225.141 109.146 225.828 110.156 227.203C111.167 228.578 111.672 230.427 111.672 232.75C111.672 235.104 111.12 236.953 110.016 238.297C108.922 239.641 107.417 240.312 105.5 240.312C103.792 240.312 102.401 239.755 101.328 238.641C100.255 237.526 99.6406 235.984 99.4844 234.016H102.078C102.234 235.318 102.604 236.302 103.188 236.969C103.781 237.625 104.552 237.953 105.5 237.953C106.573 237.953 107.411 237.49 108.016 236.562C108.62 235.625 108.922 234.365 108.922 232.781C108.922 231.292 108.594 230.078 107.938 229.141C107.292 228.203 106.417 227.734 105.312 227.734C104.396 227.734 103.661 227.974 103.109 228.453L102.375 229.188L100.172 228.594ZM124.484 217.234V219.688H124.031C122.188 219.729 120.745 220.354 119.703 221.562C118.661 222.76 118.062 224.568 117.906 226.984C118.917 225.714 120.208 225.078 121.781 225.078C123.458 225.078 124.786 225.771 125.766 227.156C126.755 228.531 127.25 230.339 127.25 232.578C127.25 234.964 126.703 236.849 125.609 238.234C124.526 239.62 123.068 240.312 121.234 240.312C119.391 240.312 117.906 239.495 116.781 237.859C115.656 236.224 115.094 234.052 115.094 231.344V230.234C115.094 227.109 115.432 224.62 116.109 222.766C116.786 220.911 117.781 219.536 119.094 218.641C120.417 217.734 122.057 217.266 124.016 217.234H124.484ZM121.312 227.484C120.562 227.484 119.87 227.771 119.234 228.344C118.599 228.917 118.141 229.646 117.859 230.531V231.672C117.859 233.516 118.182 235.021 118.828 236.188C119.484 237.344 120.286 237.922 121.234 237.922C122.266 237.922 123.073 237.448 123.656 236.5C124.24 235.542 124.531 234.281 124.531 232.719C124.531 231.177 124.24 229.922 123.656 228.953C123.073 227.974 122.292 227.484 121.312 227.484ZM135.156 232.266L133.688 233.953V240H130.922V216H133.688V230.359L138.953 223.094H142.266L136.891 230.156L142.969 240H139.75L135.156 232.266ZM153.344 240H150.562V220.734L145.781 222.875V220.25L152.906 217.141H153.344V240Z" fill="white"/>
<defs>
<filter id="filter0_d" x="39.8857" y="0.515137" width="263.602" height="270.816" filterUnits="userSpaceOnUse" color-interpolation-filters="sRGB">
<feFlood flood-opacity="0" result="BackgroundImageFix"/>
<feColorMatrix in="SourceAlpha" type="matrix" values="0 0 0 0 0 0 0 0 0 0 0 0 0 0 0 0 0 0 127 0"/>
<feOffset dy="4"/>
<feGaussianBlur stdDeviation="2"/>
<feColorMatrix type="matrix" values="0 0 0 0 0 0 0 0 0 0 0 0 0 0 0 0 0 0 0.1 0"/>
<feBlend mode="normal" in2="BackgroundImageFix" result="effect1_dropShadow"/>
<feBlend mode="normal" in="SourceGraphic" in2="effect1_dropShadow" result="shape"/>
</filter>
</defs>
</svg>
